<?xml version="1.0" encoding="utf-8"?>
<!-- Generator: Adobe Illustrator 16.0.0, SVG Export Plug-In . SVG Version: 6.00 Build 0)  -->
<!DOCTYPE svg PUBLIC "-//W3C//DTD SVG 1.1//EN" "http://www.w3.org/Graphics/SVG/1.1/DTD/svg11.dtd">
<svg version="1.1" id="Layer_1" xmlns="http://www.w3.org/2000/svg" xmlns:xlink="http://www.w3.org/1999/xlink" x="0px" y="0px"
	 width="512px" height="512px" viewBox="0 0 512 512" enable-background="new 0 0 512 512" xml:space="preserve">
<path id="XMLID_6_" d="M217.2,288.8h-64c-6.8,0-12.4-4-14.8-10.399c-2.4-6.4-0.8-13.2,4-17.601L423.6,4c6-5.2,14.801-5.6,20.801-0.4
	c6,5.2,7.6,13.6,3.6,20.4L340,204.8h64c6.8,0,12.4,4,14.8,10c2.4,6,1.2,12.8-3.6,17.6L128,507.6c-5.6,5.601-14.8,6-20.8,1.2
	c-6.4-4.8-8-13.6-4-20.399L217.2,288.8L217.2,288.8z M231.2,296.8L116.4,496L404,220.8h-63.6c-6,0-10.801-2.8-14-8
	c-2.801-5.2-2.801-11.2,0-16L434.4,16L153.2,272.8h64c6,0,10.8,2.8,14,8C234,286,234,291.6,231.2,296.8z"/>
<path id="XMLID_1_" d="M231.2,296.8L116.4,496L404,220.8h-63.6c-6,0-10.801-2.8-14-8c-2.801-5.2-2.801-11.2,0-16L434.4,16
	L153.2,272.8h64c6,0,10.8,2.8,14,8C234,286,234,291.6,231.2,296.8z"/>
</svg>
