<?xml version="1.0" encoding="utf-8"?>
<!-- Generator: Adobe Illustrator 16.0.0, SVG Export Plug-In . SVG Version: 6.00 Build 0)  -->
<!DOCTYPE svg PUBLIC "-//W3C//DTD SVG 1.1//EN" "http://www.w3.org/Graphics/SVG/1.1/DTD/svg11.dtd">
<svg version="1.1" id="Capa_1" xmlns="http://www.w3.org/2000/svg" xmlns:xlink="http://www.w3.org/1999/xlink" x="0px" y="0px"
	 width="64px" height="64px" viewBox="0 0 64 64" enable-background="new 0 0 64 64" xml:space="preserve">
<g id="Layer_1">
	<g>
		<circle cx="32" cy="32" r="32"/>
	</g>
	<g opacity="0.2">
		<g>
			<circle fill="#231F20" cx="32" cy="34" r="22"/>
		</g>
	</g>
	<g>
		<g>
			<path d="M32,52c-11.028,0-20-8.973-20-20c0-11.028,8.972-20,20-20c11.027,0,20,8.972,20,20C52,43.027,43.027,52,32,52z"/>
		</g>
		<g>
			<path fill="#FFFFFF" d="M32,14c9.925,0,18,8.075,18,18s-8.075,18-18,18s-18-8.075-18-18S22.075,14,32,14 M32,10
				c-12.15,0-22,9.85-22,22c0,12.15,9.85,22,22,22c12.15,0,22-9.85,22-22C54,19.85,44.15,10,32,10L32,10z"/>
		</g>
	</g>
	<g>
		<path fill="#FFFFFF" d="M32,22c5.514,0,10,4.486,10,10c0,5.514-4.486,10-10,10c-5.514,0-10-4.486-10-10C22,26.486,26.486,22,32,22
			 M32,18c-7.732,0-14,6.268-14,14c0,7.732,6.268,14,14,14c7.732,0,14-6.268,14-14C46,24.268,39.732,18,32,18L32,18z"/>
	</g>
	<g>
		<circle fill="#FFFFFF" cx="32" cy="32" r="5"/>
	</g>
</g>
<g id="Layer_2">
</g>
</svg>
